<?xml version="1.0" encoding="UTF-8"?>
<svg width="80px" height="81px" viewBox="0 0 80 81" version="1.1" xmlns="http://www.w3.org/2000/svg" xmlns:xlink="http://www.w3.org/1999/xlink">
    <!-- Generator: Sketch 49.2 (51160) - http://www.bohemiancoding.com/sketch -->
    <title>i-elections--primary</title>
    <desc>Created with Sketch.</desc>
    <defs></defs>
    <g id="Cards" stroke="none" stroke-width="1" fill="none" fill-rule="evenodd">
        <g id="Feature-and-vertical-cards" transform="translate(-113.000000, -593.000000)">
            <g id="i-elections--primary" transform="translate(113.010202, 593.648595)">
                <circle id="Oval-121-Copy-4" fill="#112E51" cx="39.8947372" cy="40.0938483" r="39.8947372"></circle>
                <g id="Group-7-Copy" transform="translate(23.016195, 20.146480)" fill="#FFFFFF">
                    <path d="M23.3064873,15.9009451 C22.1879472,18.0470595 19.9305758,19.516688 17.323473,19.516688 C14.8419227,19.516688 12.6772302,18.1851995 11.5098935,16.2062066 C11.928198,15.3615904 12.7479346,14.7546569 13.7182046,14.6439642 C14.7406585,15.4691676 16.0383368,15.9627353 17.4504678,15.9627353 C18.8671836,15.9627353 20.1687022,15.4659574 21.1926812,14.635916 C22.0757119,14.7108547 22.8417933,15.1960175 23.3064873,15.9009451 Z M20.0091665,10.8893606 C20.0086831,12.2965403 18.7220707,13.576232 17.3097936,13.576232 C15.8960666,13.576232 14.6104208,12.2965403 14.6104208,10.8893606 C14.6099375,9.48169976 15.8960666,8.19912157 17.3097936,8.19912157 C18.724004,8.19912157 20.0125497,9.48073759 20.0091665,10.8893606 Z" id="Combined-Shape"></path>
                    <path d="M9.94375063,30.1458929 C11.1508452,31.7551597 12.4057101,33.3327489 13.6604912,34.8395791 C14.2322425,35.5261786 14.7636191,36.1493142 15.2413312,36.6979758 C15.5301317,37.0296687 15.7384645,37.2645803 15.8530083,37.3916387 L16.2752381,37.8599995 L0.269199119,37.8599995 L4.36108086,30.1458929 L9.94375063,30.1458929 Z M18.3717079,37.8599995 L18.7939378,37.3916387 C18.9084816,37.2645803 19.1168144,37.0296687 19.4056149,36.6979758 C19.883327,36.1493142 20.4147036,35.5261786 20.9864549,34.8395791 C22.241236,33.3327489 23.4961008,31.7551597 24.7031954,30.1458929 L30.9583122,30.1458929 L35.0501939,37.8599995 L18.3717079,37.8599995 Z M17.323473,35.0119659 C17.323473,35.0119659 4.42109504,20.6999315 4.42109504,13.6075923 C4.42109504,6.51578828 10.1981348,0.764968222 17.323473,0.764968222 C24.4488113,0.764968222 30.225851,6.51578828 30.225851,13.6075923 C30.225851,20.6999315 17.323473,35.0119659 17.323473,35.0119659 Z M8.7218877,12.8379823 C8.7218877,17.5662084 12.5732475,21.4002668 17.323473,21.4002668 C22.0736985,21.4002668 25.9250584,17.5662084 25.9250584,12.8379823 C25.9250584,8.10975616 22.0736985,4.27623286 17.323473,4.27623286 C12.5732475,4.27623286 8.7218877,8.10975616 8.7218877,12.8379823 Z" id="Combined-Shape"></path>
                </g>
            </g>
        </g>
    </g>
</svg>