<?xml version="1.0" encoding="UTF-8"?>
<svg width="80px" height="81px" viewBox="0 0 80 81" version="1.1" xmlns="http://www.w3.org/2000/svg" xmlns:xlink="http://www.w3.org/1999/xlink">
    <!-- Generator: Sketch 49.2 (51160) - http://www.bohemiancoding.com/sketch -->
    <title>i-overviews--primary</title>
    <desc>Created with Sketch.</desc>
    <defs></defs>
    <g id="Cards" stroke="none" stroke-width="1" fill="none" fill-rule="evenodd">
        <g id="Feature-and-vertical-cards" transform="translate(-832.000000, -593.000000)">
            <g id="i-overviews--primary" transform="translate(832.000000, 593.000000)">
                <g id="Group-2-Copy" transform="translate(0.010202, 0.648595)" fill="#112E51">
                    <circle id="Oval-121-Copy-4" cx="39.8947372" cy="40.0938483" r="39.8947372"></circle>
                </g>
                <path d="M29.1188297,32.3037762 C29.0297863,32.2395821 29.023574,32.1339726 29.1001927,31.9848767 L30.1376515,30.0052148 L29.0981219,28.025553 C29.0318571,27.9095895 29.0256447,27.8143338 29.0774141,27.7439275 C29.1291835,27.6714503 29.2202977,27.6486718 29.3507566,27.6755919 L31.556133,28.0504023 L33.1154273,26.4476217 C33.2334616,26.3295875 33.3370004,26.3026674 33.423973,26.3668614 C33.4757424,26.4062062 33.5109456,26.4766126 33.5295825,26.5842929 L33.8526236,28.7938109 L35.8592055,29.781571 C35.8778425,29.7919249 35.9026918,29.8084911 35.9337535,29.8312697 C35.9834521,29.8664729 36.0145137,29.9099592 36.0310799,29.9596578 C36.0476462,30.0093564 36.039363,30.0569842 36.0041599,30.1046121 C35.9710274,30.1501692 35.9233996,30.1874431 35.8571348,30.216434 L33.8546944,31.2083357 L33.5337241,33.4199245 C33.525441,33.4924016 33.5047332,33.5524541 33.4736716,33.5938696 C33.4384684,33.6435683 33.3929113,33.6704884 33.3411419,33.6684176 C33.2873017,33.6684176 33.2376031,33.6518514 33.1879045,33.6145774 C33.1734091,33.6042235 33.1506305,33.5855865 33.1216397,33.5545249 L31.5602746,31.9558858 L29.3548981,32.3389794 C29.2472178,32.3514041 29.1685283,32.3389794 29.1188297,32.3037762 Z M29.3546911,43.7282474 C29.2470107,43.740672 29.170392,43.7282474 29.1186226,43.6930442 C29.03165,43.6288501 29.0233669,43.5232406 29.0999856,43.3741447 L30.1374444,41.3944828 L29.0979148,39.414821 C29.03165,39.2988575 29.0254377,39.2036018 29.0772071,39.1331954 C29.1289765,39.0607183 29.2221614,39.0379397 29.3505495,39.0648598 L31.5559259,39.4396703 L33.1152203,37.8368897 C33.2332545,37.7188554 33.3367933,37.6919353 33.4258367,37.7561294 C33.4755353,37.7954741 33.5107385,37.8658805 33.5293755,37.9735609 L33.8524165,40.1830789 L35.8589985,41.170839 C35.8776354,41.1811929 35.9024848,41.1977591 35.9335464,41.2205376 C35.983245,41.2557408 36.0143067,41.2992271 36.0308729,41.3489258 C36.0474391,41.3986244 36.039156,41.4462522 36.0039528,41.4938801 C35.9728911,41.5394371 35.9231925,41.5767111 35.8569277,41.605702 L33.8544873,42.5976037 L33.533517,44.8091924 C33.5252339,44.8816696 33.5045261,44.9417221 33.4734645,44.9831376 C33.4382613,45.0328363 33.394775,45.0597563 33.3409348,45.0576856 C33.2870947,45.0576856 33.237396,45.0411194 33.1876974,45.0038454 C33.173202,44.9934915 33.1504235,44.9748545 33.1214326,44.9437929 L31.5600675,43.3451538 L29.3546911,43.7282474 Z M18.7649497,32.3037762 C18.6759063,32.2395821 18.669694,32.1339726 18.7463127,31.9848767 L19.7837715,30.0052148 L18.7442419,28.025553 C18.6779771,27.9095895 18.6717648,27.8143338 18.7235342,27.7439275 C18.7753036,27.6714503 18.8664177,27.6486718 18.9968766,27.6755919 L21.202253,28.0504023 L22.7615474,26.4476217 C22.8795816,26.3295875 22.9831204,26.3026674 23.070093,26.3668614 C23.1218624,26.4062062 23.1570656,26.4766126 23.1757026,26.5842929 L23.4987436,28.7938109 L25.5053256,29.781571 C25.5239625,29.7919249 25.5488119,29.8084911 25.5798735,29.8312697 C25.6295721,29.8664729 25.6606338,29.9099592 25.6772,29.9596578 C25.6937662,30.0093564 25.6854831,30.0569842 25.6502799,30.1046121 C25.6171475,30.1501692 25.5695196,30.1874431 25.5032548,30.216434 L23.5008144,31.2083357 L23.1798441,33.4199245 C23.171561,33.4924016 23.1508532,33.5524541 23.1197916,33.5938696 C23.0845884,33.6435683 23.0390313,33.6704884 22.9872619,33.6684176 C22.9334218,33.6684176 22.8837231,33.6518514 22.8340245,33.6145774 C22.8195291,33.6042235 22.7967506,33.5855865 22.7677597,33.5545249 L21.2063946,31.9558858 L19.0010182,32.3389794 C18.8933378,32.3514041 18.8146483,32.3389794 18.7649497,32.3037762 Z M19.0008111,43.7282474 C18.8931307,43.740672 18.816512,43.7282474 18.7647426,43.6930442 C18.67777,43.6288501 18.6694869,43.5232406 18.7461056,43.3741447 L19.7835644,41.3944828 L18.7440348,39.414821 C18.67777,39.2988575 18.6715577,39.2036018 18.7233271,39.1331954 C18.7750965,39.0607183 18.8682814,39.0379397 18.9966695,39.0648598 L21.202046,39.4396703 L22.7613403,37.8368897 C22.8793745,37.7188554 22.9829133,37.6919353 23.0719567,37.7561294 C23.1216553,37.7954741 23.1568585,37.8658805 23.1754955,37.9735609 L23.4985365,40.1830789 L25.5051185,41.170839 C25.5237555,41.1811929 25.5486048,41.1977591 25.5796664,41.2205376 C25.629365,41.2557408 25.6604267,41.2992271 25.6769929,41.3489258 C25.6935591,41.3986244 25.685276,41.4462522 25.6500728,41.4938801 C25.6190112,41.5394371 25.5693125,41.5767111 25.5030477,41.605702 L23.5006073,42.5976037 L23.179637,44.8091924 C23.1713539,44.8816696 23.1506462,44.9417221 23.1195845,44.9831376 C23.0843813,45.0328363 23.040895,45.0597563 22.9870549,45.0576856 C22.9332147,45.0576856 22.8835161,45.0411194 22.8338174,45.0038454 C22.819322,44.9934915 22.7965435,44.9748545 22.7675526,44.9437929 L21.2061875,43.3451538 L19.0008111,43.7282474 Z M19.0008111,54.4124161 C18.8931307,54.4248408 18.816512,54.4124161 18.7647426,54.3772129 C18.67777,54.3130189 18.6694869,54.2074093 18.7461056,54.0583134 L19.7835644,52.0786516 L18.7440348,50.0989897 C18.67777,49.9830263 18.6715577,49.8877706 18.7233271,49.8173642 C18.7750965,49.744887 18.8682814,49.7221085 18.9966695,49.7490286 L21.202046,50.123839 L22.7613403,48.5210584 C22.8793745,48.4030242 22.9829133,48.3761041 23.0719567,48.4402982 C23.1216553,48.4796429 23.1568585,48.5500493 23.1754955,48.6577296 L23.4985365,50.8672476 L25.5051185,51.8550078 C25.5237555,51.8653617 25.5486048,51.8819279 25.5796664,51.9047064 C25.629365,51.9399096 25.6604267,51.9833959 25.6769929,52.0330945 C25.6935591,52.0827931 25.685276,52.130421 25.6500728,52.1780488 C25.6190112,52.2236059 25.5693125,52.2608799 25.5030477,52.2898707 L23.5006073,53.2817724 L23.179637,55.4933612 C23.1713539,55.5658384 23.1506462,55.6258909 23.1195845,55.6673064 C23.0843813,55.717005 23.040895,55.7439251 22.9870549,55.7418543 C22.9332147,55.7418543 22.8835161,55.7252881 22.8338174,55.6880141 C22.819322,55.6776603 22.7965435,55.6590233 22.7675526,55.6279616 L21.2061875,54.0293226 L19.0008111,54.4124161 Z M56.9359778,22.8952055 L59.3111578,22.8952055 L59.3111578,59.1047945 L56.9359778,59.1047945 L56.9359778,55.5202813 L27.1147327,55.5202813 L27.1147327,48.349184 L56.9359778,48.349184 L56.9359778,44.7646708 L40.146126,44.7646708 L40.146126,37.5935735 L56.9359778,37.5935735 L56.9359778,34.0090602 L40.146126,34.0090602 L40.146126,26.837963 L56.9359778,26.837963 L56.9359778,22.8952055 Z" id="Combined-Shape" fill="#FFFFFF"></path>
            </g>
        </g>
    </g>
</svg>