<?xml version="1.0" encoding="UTF-8"?>
<svg width="80px" height="80px" viewBox="0 0 80 80" version="1.1" xmlns="http://www.w3.org/2000/svg" xmlns:xlink="http://www.w3.org/1999/xlink">
    <!-- Generator: Sketch 49.2 (51160) - http://www.bohemiancoding.com/sketch -->
    <title>i-profiles--primary</title>
    <desc>Created with Sketch.</desc>
    <defs></defs>
    <g id="Cards" stroke="none" stroke-width="1" fill="none" fill-rule="evenodd">
        <g id="Feature-and-vertical-cards" transform="translate(-352.000000, -594.000000)">
            <g id="i-profiles--primary" transform="translate(352.000000, 594.000000)">
                <circle id="Oval-121" fill="#112E51" cx="39.6268209" cy="39.8669092" r="39.6190476"></circle>
                <g id="Group-6" transform="translate(19.817297, 22.343100)" fill="#FFFFFF">
                    <path d="M7.08273423,33.0192715 L0.163642238,33.0192715 L0.163642238,9.16220689 L1.09819459,9.16220689 L40.8111727,9.16220689 L41.7509366,9.16220689 L41.7509366,6.04888174 L40.8111727,6.04888174 L1.09819459,6.04888174 L0.163642238,6.04888174 L0.163642238,0.116555697 L11.2270088,0.0932916729 L14.2532962,3.53287475 L41.7561481,3.53287475 L41.7561481,33.0192715 L15.3852418,33.0192715 L17.5359531,22.0472101 C17.5659131,21.8772485 17.5849785,21.7052391 17.5849785,21.5264041 C17.5849785,20.023273 16.4372868,18.7841312 14.9701475,18.6602116 C13.9352905,19.4950983 12.6199454,19.9947762 11.1881794,19.9947762 C9.76104683,19.9947762 8.44958292,19.4983272 7.41626709,18.6683067 C5.98852028,18.830419 4.88329633,20.0507099 4.88329633,21.5264041 C4.88329633,21.7052391 4.89078633,21.8772485 4.92074634,22.0472101 L7.08273423,33.0192715 Z M22.4834331,16.8951793 L35.0607314,16.8951793 C35.5994272,16.8951793 36.0361264,16.4507779 36.0361264,15.902581 C36.0361264,15.354384 35.5994272,14.9099826 35.0607314,14.9099826 L22.4834331,14.9099826 C21.9447373,14.9099826 21.5080381,15.354384 21.5080381,15.902581 C21.5080381,16.4507779 21.9447373,16.8951793 22.4834331,16.8951793 Z M22.4834331,21.8340763 L35.0607314,21.8340763 C35.5994272,21.8340763 36.0361264,21.3896749 36.0361264,20.8414779 C36.0361264,20.293281 35.5994272,19.8488796 35.0607314,19.8488796 L22.4834331,19.8488796 C21.9447373,19.8488796 21.5080381,20.293281 21.5080381,20.8414779 C21.5080381,21.3896749 21.9447373,21.8340763 22.4834331,21.8340763 Z M22.4834331,26.7729733 L35.0607314,26.7729733 C35.5994272,26.7729733 36.0361264,26.3285718 36.0361264,25.7803749 C36.0361264,25.232178 35.5994272,24.7877766 35.0607314,24.7877766 L22.4834331,24.7877766 C21.9447373,24.7877766 21.5080381,25.232178 21.5080381,25.7803749 C21.5080381,26.3285718 21.9447373,26.7729733 22.4834331,26.7729733 Z M11.1881794,17.8711548 C13.0403565,17.8711548 14.5418427,16.3659918 14.5418427,14.5092792 C14.5418427,12.6525666 13.0403565,11.1474036 11.1881794,11.1474036 C9.33600223,11.1474036 7.83451599,12.6525666 7.83451599,14.5092792 C7.83451599,16.3659918 9.33600223,17.8711548 11.1881794,17.8711548 Z" id="folder-with-person"></path>
                </g>
            </g>
        </g>
    </g>
</svg>