<?xml version="1.0" encoding="UTF-8"?>
<svg width="80px" height="80px" viewBox="0 0 80 80" version="1.1" xmlns="http://www.w3.org/2000/svg" xmlns:xlink="http://www.w3.org/1999/xlink">
    <!-- Generator: Sketch 49.2 (51160) - http://www.bohemiancoding.com/sketch -->
    <title>i-table--primary</title>
    <desc>Created with Sketch.</desc>
    <defs></defs>
    <g id="Cards" stroke="none" stroke-width="1" fill="none" fill-rule="evenodd">
        <g id="Feature-and-vertical-cards" transform="translate(-592.000000, -593.000000)">
            <g id="i-table--primary" transform="translate(592.000000, 593.511523)">
                <circle id="Oval-121-Copy" fill="#112E51" cx="39.6268209" cy="39.8669092" r="39.6190476"></circle>
                <path d="M34.2533873,31.5255758 L54.5441141,31.5255758 L54.5441141,26.0323227 L34.2533873,26.0323227 L34.2533873,31.5255758 Z M34.2533873,38.904022 L54.5441141,38.904022 L54.5441141,34.0047337 L34.2533873,34.0047337 L34.2533873,38.904022 Z M34.2533873,46.2824681 L54.5441141,46.2824681 L54.5441141,41.3831799 L34.2533873,41.3831799 L34.2533873,46.2824681 Z M34.2533873,53.7014956 L54.5441141,53.7014956 L54.5441141,48.761626 L34.2533873,48.761626 L34.2533873,53.7014956 Z M25.0303296,31.5255758 L30.5641642,31.5255758 L30.5641642,26.0323227 L25.0303296,26.0323227 L25.0303296,31.5255758 Z M25.0303296,38.904022 L30.5641642,38.904022 L30.5641642,34.0047337 L25.0303296,34.0047337 L25.0303296,38.904022 Z M25.0303296,46.2824681 L30.5641642,46.2824681 L30.5641642,41.3831799 L25.0303296,41.3831799 L25.0303296,46.2824681 Z M25.0303296,53.7014956 L30.5641642,53.7014956 L30.5641642,48.761626 L25.0303296,48.761626 L25.0303296,53.7014956 Z M54.5607156,22.3430997 L25.0137281,22.3430997 C22.9975677,22.3430997 21.3411066,23.9921824 21.3411066,26.0267889 L21.3411066,53.7070295 C21.3411066,55.7471698 22.9846555,57.3907187 25.0137281,57.3907187 L54.5607156,57.3907187 C56.576876,57.3907187 58.2333372,55.741636 58.2333372,53.7070295 L58.2333372,26.0267889 C58.2333372,23.9866485 56.5897883,22.3430997 54.5607156,22.3430997 L54.5607156,22.3430997 Z" id="Page-1" fill="#FFFFFF"></path>
            </g>
        </g>
    </g>
</svg>